PathFileType	4	(X/Y/Z)	F:\MotionCapture\20160217\3\Generated_files\EMG_test04-Dynamic.trc
DataRate	CameraRate	NumFrames	NumMarkers	Units	OrigDataRate	OrigDataStartFrame	OrigNumFrames
120.00	120.00	       9	39	mm	120.00	357	       713
Frame#	Time	Top.Head			Front.Head			Rear.Head			R.Shoulder			R.Offset			R.Elbow			R.Wrist			L.Shoulder			L.Elbow			L.Wrist			R.ASIS			L.ASIS			V.Sacral			R.Thigh			R.Knee			R.Shank			R.Ankle			R.Heel			R.Toe			L.Thigh			L.Knee			L.Shank			L.Ankle			L.Heel			L.Toe			R1			R2			R3			R4			R5			R6			R7			L1			L2			L3			L4			L5			L6			L7			V_Mid_ASIS			V_Pelvis_Origin			V_R.Hip_JC			V_L.Hip_JC			V_R.Knee_JC			V_L.Knee_JC			V_R.Ankle_JC			V_L.Ankle_JC			V_Mid_Hip			V_Mid_Shoulder			V_R.Hand			V_L.Hand			V_R.Toe_Offset_Static			V_L.Toe_Offset_Static			V_R.Toe_Offset			V_L.Toe_Offset			
		X1	Y1	Z1	X2	Y2	Z2	X3	Y3	Z3	X4	Y4	Z4	X5	Y5	Z5	X6	Y6	Z6	X7	Y7	Z7	X8	Y8	Z8	X9	Y9	Z9	X10	Y10	Z10	X11	Y11	Z11	X12	Y12	Z12	X13	Y13	Z13	X14	Y14	Z14	X15	Y15	Z15	X16	Y16	Z16	X17	Y17	Z17	X18	Y18	Z18	X19	Y19	Z19	X20	Y20	Z20	X21	Y21	Z21	X22	Y22	Z22	X23	Y23	Z23	X24	Y24	Z24	X25	Y25	Z25	X26	Y26	Z26	X27	Y27	Z27	X28	Y28	Z28	X29	Y29	Z29	X30	Y30	Z30	X31	Y31	Z31	X32	Y32	Z32	X33	Y33	Z33	X34	Y34	Z34	X35	Y35	Z35	X36	Y36	Z36	X37	Y37	Z37	X38	Y38	Z38	X39	Y39	Z39	

357	2.967	284.24612	167.15778	1695.61658	176.98091	162.08861	1606.28711	396.30194	162.95937	1632.84106	362.54886	362.57300	1391.38245	488.26123	80.78343	1252.71875	464.95700	454.29736	1083.89124	446.59937	466.57724	820.35938	324.16324	-41.37080	1398.06982	276.75861	-179.23288	1096.18909	46.49260	-157.76862	982.19812	281.69113	291.45792	926.38165	289.41803	3.54847	905.07587	509.97015	156.43329	913.36682	162.90813	241.19460	591.11102	194.47647	279.40405	467.82330	192.87280	197.67033	234.06006	242.78065	265.30106	68.13445	311.79648	203.10971	41.13050	99.38615	246.93047	38.81970	261.52554	12.66957	578.18719	383.18030	-39.21085	429.22003	473.32401	36.34159	316.30109	738.60431	3.64044	231.13081	758.16687	73.92356	276.47217	728.14819	-4.39904	89.83872	53.18253	226.73204	37.43150	93.04728	208.72156	42.84039	191.44499	172.03789	51.02530	265.19800	170.72395	38.83010	279.42346	245.96605	40.27690	206.18118	273.25372	35.23751	140.21661	289.95941	34.77809	709.67468	12.08769	50.11861	713.66351	30.61105	77.45361	712.46185	81.02872	160.20535	739.01373	97.52244	236.24600	764.91809	31.24328	255.79161	764.59210	-8.40185	183.54716	753.96973	-25.49265	124.28314	
358	2.975	271.76624	168.04060	1698.32605	164.80002	162.79861	1608.76208	383.82764	163.82996	1635.44092	349.60779	363.01489	1393.99231	475.82822	82.12953	1255.39539	447.19769	455.92752	1085.01013	422.12997	467.16812	821.95111	312.99493	-41.16095	1400.69592	270.62393	-177.70924	1096.80396	43.48393	-157.57892	975.41833	270.14111	292.23691	928.25879	277.33136	4.13909	907.71198	497.95370	157.49832	916.37762	156.45995	241.54713	590.62225	190.73778	280.64417	467.02026	190.10414	198.69267	233.62268	243.08415	265.96899	67.30022	311.81424	203.08130	41.16851	99.24167	246.99919	38.65474	241.07687	14.91535	582.81830	358.83154	-38.94241	431.83881	449.44196	38.07416	319.27228	715.13690	5.70589	236.09767	735.81854	77.68396	278.92392	702.33313	-6.59689	94.47257	53.24744	226.87265	37.34145	93.32991	208.94424	42.67497	191.46556	172.12900	50.94409	265.20850	170.78082	38.90379	279.59625	245.93819	40.27487	206.32802	273.34326	35.07874	140.06293	290.10095	34.81789	683.58002	8.51936	54.20517	688.21973	28.75669	81.27926	687.53479	81.60854	163.21561	715.46954	99.57735	238.19115	741.27698	34.45215	259.05673	739.02521	-7.22627	188.83000	727.47632	-26.02200	130.08499	
359	2.983	259.30173	168.91937	1700.88098	152.95169	163.52443	1611.62842	371.84641	164.51604	1638.23547	336.81097	363.45361	1396.67908	464.42300	83.47456	1258.01575	429.09515	457.92743	1086.02502	396.71722	467.71295	824.08453	301.06372	-41.18412	1403.13123	264.44672	-175.92317	1097.69556	41.30124	-157.88144	968.28973	258.62207	292.81070	930.38287	265.13095	4.93786	910.98181	486.29443	158.49391	919.68457	150.31036	241.83205	589.72577	187.03836	281.68845	467.04919	189.91083	199.40714	233.11215	243.25461	266.00183	67.29095	311.83990	203.16315	41.28532	99.30918	247.14592	38.63916	221.58206	16.38144	587.61908	335.10370	-38.58441	434.80179	425.76465	39.31582	322.23474	690.18469	7.81904	238.97588	713.78528	80.43223	280.15811	674.16052	-7.08726	97.53269	53.36129	227.15804	37.28914	93.47980	209.06863	42.69483	191.48215	172.24622	50.94051	265.22150	170.81248	39.09993	279.59674	245.88831	40.27645	206.51985	273.49377	35.05183	140.03645	290.26251	34.79777	655.28931	4.94921	57.72636	659.39709	26.89026	84.52859	662.57404	82.91595	166.23343	691.78247	101.45036	239.06735	718.11340	36.47969	260.86108	711.58960	-6.63687	192.12096	698.19489	-26.62501	133.40895	
360	2.992	247.22693	169.50998	1703.51086	140.58127	163.97116	1613.87988	359.85413	165.33353	1641.18054	323.72247	363.92612	1399.53833	452.11365	84.84676	1260.64917	410.78873	459.03717	1087.42078	371.87039	468.41376	826.24231	290.11456	-41.18947	1405.82983	258.15451	-174.76089	1098.91345	39.77935	-158.16963	961.35645	247.03326	294.02051	932.32776	253.25969	5.95667	913.94818	474.95087	159.37041	923.08032	144.71048	242.35576	588.85657	183.48691	282.25201	466.49521	187.53384	199.59354	232.96463	242.86478	265.48538	67.92552	312.01984	203.22208	41.51669	99.32266	247.34224	38.77302	202.43939	18.01335	592.48071	311.54181	-38.42465	438.81311	399.62125	40.31865	325.27689	665.83087	9.16984	241.43121	691.46759	82.65525	279.82175	644.52844	-7.40999	100.19080	53.41240	227.29553	37.23144	93.57963	209.13367	42.68194	191.57489	172.23888	50.88943	265.26740	170.95772	39.41259	279.63431	245.91568	40.33804	206.60851	273.61432	35.13716	140.04742	290.45032	34.79333	624.13593	3.63355	59.59954	628.21332	26.17524	87.22411	635.85590	84.15885	167.94341	669.02295	103.98489	239.91089	694.26611	38.37839	261.54974	684.37311	-5.98431	193.64391	667.84827	-26.81252	135.96869																																																	297.93085	161.16553	-75.12297	763.25354	351.01294	738.79614	
361	3.000	235.18573	169.93361	1706.30371	128.59576	164.38983	1617.02417	347.58813	165.68648	1643.71680	310.45901	364.19492	1402.42200	439.99725	86.23388	1262.98779	393.61703	460.75159	1088.60828	346.03336	468.94168	828.99310	279.30969	-41.13343	1408.54211	252.34625	-173.09789	1099.84070	39.10887	-158.29263	954.55188	235.84268	294.73593	934.37524	241.14606	6.94338	917.49567	463.09882	159.96960	926.01044	138.70877	242.82484	587.59973	180.28734	282.99863	466.29385	186.89893	199.84488	232.97884	242.69267	265.47247	67.83398	311.97122	203.28116	41.57962	99.28888	247.41208	38.60568	183.18196	19.55411	598.14136	288.35980	-37.39930	442.54358	374.65247	40.75679	327.98224	640.22864	10.79092	241.30258	667.53412	84.08194	278.29297	612.12152	-7.10566	101.77991	53.52649	227.41321	37.04390	93.58745	209.15402	42.53609	191.53412	172.33679	50.85667	265.32166	171.03673	39.54739	279.60181	246.01207	40.29921	206.68951	273.72067	34.98720	140.05896	290.54810	34.73886	591.08136	4.18642	60.92886	597.19397	26.50767	88.59029	608.27576	85.47291	168.94083	643.95880	104.97338	238.77139	669.64941	39.91350	259.96982	656.59387	-4.96574	193.38554	637.16486	-26.34547	137.28003																																																	230.43053	73.19615	133.52126	
362	3.008	223.28842	170.37158	1708.96387	116.31564	164.53766	1619.44092	335.28433	166.08546	1646.51428	297.70908	364.38397	1405.52368	428.35538	87.89439	1265.74756	376.29391	462.35321	1090.29285	320.61224	469.24899	832.34155	268.54675	-41.31589	1411.08459	246.70792	-171.53404	1100.96155	38.62252	-158.37689	947.53082	224.33595	295.62091	936.16388	228.81885	7.96016	920.62506	451.71637	160.44429	929.23578	133.67148	243.55214	586.39258	176.83498	282.70438	465.79517	185.97075	199.44569	232.68369	242.44778	265.54507	67.68542	312.00217	203.30115	41.65833	99.27029	247.40665	38.57733	164.03702	20.26544	603.91620	265.26135	-36.68593	446.02481	349.77267	41.78976	330.11996	613.81879	12.14894	239.96265	642.78497	85.25002	275.71979	578.48846	-6.68032	102.89346	53.53552	227.41960	36.99514	93.63724	209.14201	42.52026	191.62164	172.32452	50.83350	265.07599	170.99699	39.76630	279.57364	246.05154	40.32417	206.74564	273.82147	35.01330	140.07651	290.67337	34.72417	557.59247	5.16693	61.08388	563.70856	26.76425	89.48632	579.62256	86.54446	168.91130	617.93066	105.94387	237.39464	643.41681	40.74071	257.72302	628.60809	-3.80645	191.10088	605.71167	-25.35852	136.21971																																																	228.12825	72.42452	130.26089	
363	3.017	211.47108	170.69388	1711.33582	104.83677	164.94661	1622.24219	323.45642	166.62726	1648.94116	284.34088	364.26236	1408.14160	416.36755	89.62265	1268.46240	358.72293	464.33835	1092.00134	294.32092	469.61044	835.86267	257.84818	-41.35852	1413.53442	240.89587	-170.38058	1102.33301	39.23278	-158.87418	940.41522	213.37033	297.02106	937.81525	217.16469	9.19064	924.08197	439.94141	160.72777	932.04657	128.76810	244.10245	584.72644	173.23135	283.00934	465.41797	186.13438	198.94977	232.47034	242.15814	265.61942	67.60287	311.94382	203.31323	41.74630	99.21574	247.43091	38.51384	145.27347	21.39319	609.56024	242.25369	-35.61060	450.00473	324.02206	42.53661	332.72070	585.28668	13.60735	237.18298	617.65045	86.49927	272.44403	548.05151	-3.68655	101.05829	53.61531	227.51242	36.99512	93.62916	209.14285	42.45018	191.66719	172.31296	50.84278	265.43994	171.42227	39.98461	279.53671	246.10352	40.48569	206.76700	273.85181	35.03722	140.12898	290.73077	34.70131	523.33807	6.89760	60.94904	532.11584	29.63847	89.04155	549.76355	87.39926	167.97240	591.52917	107.09279	234.55486	616.56976	41.81529	253.82590	599.56653	-2.68106	187.70987	573.81512	-23.72402	134.01727	
364	3.025	199.94386	170.86357	1713.87659	93.04135	165.18594	1624.71826	312.17767	166.92581	1651.28174	271.97443	364.63535	1410.90637	404.54471	90.86717	1270.84717	339.73251	465.48227	1093.70483	267.91183	470.34106	839.86932	246.73875	-41.49091	1415.61963	235.60945	-168.89597	1103.35071	39.94582	-159.08917	933.59302	203.06001	298.47858	939.38635	205.46190	10.50436	927.18250	428.24744	160.55525	935.04932	123.67707	244.63333	583.45935	170.44295	283.21255	465.02942	185.64894	198.36311	232.29688	243.05862	265.02679	67.69806	311.89221	203.33299	41.81825	99.27972	247.46146	38.46579	126.64547	22.54425	615.67346	219.17914	-34.74965	454.01968	297.82452	43.85389	335.05768	557.32935	15.05370	233.25562	591.67389	87.18171	267.59061	514.49768	-1.58874	99.13450	53.67086	227.53714	36.91317	93.68663	209.13301	42.40173	191.68466	172.27371	50.76380	265.39346	171.40463	40.00779	279.53412	246.02852	40.67289	206.76323	273.81400	35.01145	140.10817	290.73276	34.65882	488.27618	9.21992	59.74926	497.97446	31.35728	87.33014	520.80591	89.67364	165.58122	564.34912	108.52107	230.65669	589.47699	42.80967	249.23759	570.01636	-1.50266	183.62947	542.00732	-21.84858	131.13083																																																	568.13879	97.81193	116.12978	
365	3.033	187.59268	170.90279	1716.05481	81.35064	165.17705	1626.95935	300.60715	167.16646	1653.28943	258.76361	364.97507	1413.90454	392.86700	92.37830	1273.13721	321.95450	467.00208	1095.45313	242.30367	470.18948	844.26233	236.08189	-41.67831	1417.94910	230.90448	-167.75021	1104.68445	41.03171	-159.33632	926.88739	192.16484	299.90204	941.09644	193.28989	12.43581	930.79688	416.36765	159.98148	937.46887	118.50435	245.47708	581.94171	166.75003	282.95996	464.56296	185.05159	198.17505	232.13243	241.64944	264.29672	67.74287	310.18741	202.02979	41.89646	99.28295	247.46925	38.49073	107.68082	23.62885	622.03497	196.61420	-33.33651	458.13736	272.06244	44.62038	337.22003	529.38275	16.85910	228.31787	565.70959	88.84844	261.48276	479.89038	-0.20672	97.38538	53.71059	227.57730	36.93214	93.77866	209.13466	42.34862	191.83711	172.10440	50.59985	265.41370	171.35426	40.03762	278.83310	245.51585	40.97087	206.68704	273.68420	35.10210	140.09869	290.66034	34.70105	451.95990	11.40677	58.74636	463.17438	33.32811	85.89415	489.31702	91.13441	161.84239	537.19244	110.26706	226.07712	562.02795	44.50098	243.24130	539.57623	-0.02169	178.42630	508.81512	-20.20306	127.55941																																																	534.19000	101.89787	113.81399	
